<svg xmlns="http://www.w3.org/2000/svg" aria-label="DSB — Designer OS" role="img" shape-rendering="crispEdges" viewBox="0 0 64 16"><title>DSB — DESIGNER_OS</title><g fill="#8aceff"><rect width="4" height="2" x="0" y="2"/><rect width="2" height="8" x="0" y="4"/><rect width="2" height="8" x="4" y="4"/><rect width="4" height="2" x="0" y="12"/></g><g fill="#f57"><rect width="5" height="2" x="10" y="3"/><rect width="2" height="2" x="9" y="5"/><rect width="5" height="2" x="10" y="7"/><rect width="2" height="2" x="14" y="9"/><rect width="5" height="2" x="9" y="11"/></g><g fill="#8aceff"><rect width="5" height="2" x="9" y="2"/><rect width="2" height="2" x="8" y="4"/><rect width="5" height="2" x="9" y="6"/><rect width="2" height="2" x="13" y="8"/><rect width="5" height="2" x="8" y="10"/></g><g fill="#ffdd74"><rect width="5" height="2" x="18" y="2"/><rect width="2" height="8" x="18" y="4"/><rect width="2" height="2" x="22" y="4"/><rect width="5" height="2" x="18" y="6"/><rect width="2" height="4" x="22" y="8"/><rect width="5" height="2" x="18" y="12"/></g><rect width="2" height="2" x="27" y="12" fill="#f57"/><g fill="#7fff9f"><rect width="3" height="2" x="32" y="6"/><rect width="1" height="2" x="32" y="8"/><rect width="1" height="2" x="34" y="8"/><rect width="3" height="2" x="32" y="10"/><rect width="3" height="2" x="37" y="6"/><rect width="2" height="2" x="37" y="8"/><rect width="2" height="2" x="38" y="10"/><rect width="3" height="2" x="37" y="12"/></g></svg>